:SAMPLES-PER-SECOND 30
:FULLY-SPECIFIED
:DEGREES
448
root  -39.9073 34.4077 -4.6433 -162.116 31.9733 -179.204
RightUpLeg  -30.355 -5.97524 -1.90774
RightLeg  12.5894 7.57033 1.18424
RightFoot  10.8297 -0.100842 1.55627
RightToes  -36.8569 -0.193874 -0.296688
Spine  5.74302 0.657234 -0.0547113
Spine1  11.4309 1.45676 0.369498
HEad  6.01093 -7.46622 -6.11938
LeftShoulder1  -1.94126e-019 -3.10601e-018 -2.51263e-017
LeftArm  2.59248 11.7465 -77.4552
LeftForeArm  31.3636 -43.4346 -8.45624
LeftHand  -0.295086 -1.71005 4.99711
RightShoulder  -4.96962e-017 0 -2.36833e-017
RightArm  -3.91873 -9.51595 72.4635
RightForeArm  48.6732 38.3113 5.84505
RightHand  -0.362934 -0.756085 -9.06035
LeftUpLeg  -32.6073 -0.222208 3.36244
LeftLeg  22.8223 7.2626 2.50898
LeftFoot  4.63335 -0.0176767 0.782876
LeftToes  -27.3095 1.83942e-006 5.51297e-008
449
root  -40.1584 34.4291 -4.60479 -161.813 32.2243 -179.292
RightUpLeg  -30.532 -6.18995 -2.17379
RightLeg  11.7411 7.24272 1.02413
RightFoot  10.8004 -0.0939158 1.48782
RightToes  -37.8035 -0.201179 -0.302381
Spine  5.90183 0.736863 -0.175773
Spine1  11.7476 1.61347 0.158583
HEad  5.03856 -6.81194 -6.23099
LeftShoulder1  -1.94126e-019 -3.10601e-018 -2.51263e-017
LeftArm  5.29379 12.7593 -76.3
LeftForeArm  34.4731 -45.8522 -9.08377
LeftHand  -0.351408 -1.34098 6.21494
RightShoulder  -4.96962e-017 0 -2.36833e-017
RightArm  -2.36083 -9.51654 73.1957
RightForeArm  50.3033 36.6426 5.32929
RightHand  -0.324042 -0.494479 -7.676
LeftUpLeg  -32.9076 -0.2322 2.99555
LeftLeg  22.3939 7.88102 2.65586
LeftFoot  4.37669 -0.0195229 0.796626
LeftToes  -29.4015 1.83942e-006 5.51297e-008
450
root  -40.3648 34.4546 -4.55404 -161.567 32.159 -179.397
RightUpLeg  -30.7447 -7.09 -2.14602
RightLeg  11.1645 7.24004 0.949832
RightFoot  10.061 -0.0791457 1.39325
RightToes  -38.0173 -0.20358 -0.305705
Spine  6.07999 0.79421 -0.271768
Spine1  12.1035 1.72712 -0.00937214
HEad  4.18405 -6.38532 -6.26909
LeftShoulder1  -1.94126e-019 -3.10601e-018 -2.51263e-017
LeftArm  6.45255 13.4408 -75.3827
LeftForeArm  34.7803 -48.2574 -9.97244
LeftHand  -0.347266 -0.938526 6.49947
RightShoulder  -4.96962e-017 0 -2.36833e-017
RightArm  -0.848659 -9.62018 73.9045
RightForeArm  51.6598 35.7826 5.04721
RightHand  -0.264903 -0.153713 -5.89278
LeftUpLeg  -33.1918 0.0952743 2.59703
LeftLeg  21.9132 7.86624 2.57801
LeftFoot  4.27228 -0.0196471 0.778329
LeftToes  -32.1926 1.83942e-006 5.51297e-008
451
root  -40.5223 34.4768 -4.49305 -161.365 31.7297 -179.422
RightUpLeg  -30.8074 -7.99047 -2.03445
RightLeg  10.6343 7.15168 0.871328
RightFoot  9.39022 -0.0657045 1.29438
RightToes  -38.2344 -0.204535 -0.307991
Spine  6.31026 0.826563 -0.256071
Spine1  12.5678 1.78289 0.036754
HEad  3.40573 -6.26605 -6.14751
LeftShoulder1  -1.94126e-019 -3.10601e-018 -2.51263e-017
LeftArm  7.05411 13.7011 -74.8925
LeftForeArm  35.1594 -50.2472 -10.7703
LeftHand  -0.311988 -0.596008 6.15362
RightShoulder  -4.96962e-017 0 -2.36833e-017
RightArm  0.163851 -9.83171 74.4357
RightForeArm  51.8516 35.8834 5.06161
RightHand  -0.1754 -0.83148 -4.39349
LeftUpLeg  -33.4705 0.662331 2.22821
LeftLeg  21.4693 7.2613 2.31899
LeftFoot  4.26472 -0.017979 0.728208
LeftToes  -34.9624 1.83942e-006 5.51297e-008
452
root  -40.6533 34.4854 -4.40415 -160.938 31.0919 -179.506
RightUpLeg  -31.2539 -8.87504 -1.90057
RightLeg  10.3611 7.014 0.82083
RightFoot  9.13619 -0.0588009 1.24164
RightToes  -39.1225 -0.205822 -0.310112
Spine  6.46148 0.836066 -0.216286
Spine1  12.8738 1.79438 0.1223
HEad  2.8784 -6.50051 -6.03259
LeftShoulder1  -1.94126e-019 -3.10601e-018 -2.51263e-017
LeftArm  8.31767 13.6931 -74.4372
LeftForeArm  35.3238 -51.9013 -11.5032
LeftHand  -0.29256 -0.359584 5.99037
RightShoulder  -4.96962e-017 0 -2.36833e-017
RightArm  0.328714 -10.2542 74.7454
RightForeArm  51.0863 36.8906 5.34983
RightHand  -0.158022 -2.06036 -5.2094
LeftUpLeg  -34.0818 0.899419 1.95175
LeftLeg  21.137 6.6681 2.088
LeftFoot  4.06745 -0.0150975 0.656576
LeftToes  -36.6837 1.83942e-006 5.51297e-008
453
root  -40.7648 34.4948 -4.30927 -160.655 30.4708 -179.701
RightUpLeg  -31.5865 -9.25892 -2.03689
RightLeg  10.0927 6.59044 0.740325
RightFoot  8.88988 -0.0506101 1.14822
RightToes  -39.4854 -0.206875 -0.312197
Spine  6.64242 0.819465 -0.246105
Spine1  13.2321 1.77117 0.0493319
HEad  2.67215 -6.69082 -5.75269
LeftShoulder1  -1.94126e-019 -3.10601e-018 -2.51263e-017
LeftArm  10.2943 13.3661 -73.9276
LeftForeArm  35.216 -53.0031 -12.0427
LeftHand  -0.274461 -0.348643 5.63243
RightShoulder  -4.96962e-017 0 -2.36833e-017
RightArm  0.170407 -10.354 74.9901
RightForeArm  53.8034 38.1624 5.539
RightHand  -0.162195 -2.18018 -5.53956
LeftUpLeg  -34.546 0.332323 1.8628
LeftLeg  20.7163 6.67057 2.03532
LeftFoot  3.97182 -0.0161194 0.644276
LeftToes  -37.5932 1.83942e-006 5.51297e-008
454
root  -40.8358 34.4954 -4.19689 -160.345 30.0612 -179.72
RightUpLeg  -31.9451 -9.24042 -2.03887
RightLeg  9.97338 6.35138 0.700236
RightFoot  8.41586 -0.0431231 1.06139
RightToes  -39.0732 -0.20828 -0.313993
Spine  6.84996 0.846665 -0.247148
Spine1  13.6424 1.83552 0.0321967
HEad  2.64814 -6.71856 -5.60259
LeftShoulder1  -1.94126e-019 -3.10601e-018 -2.51263e-017
LeftArm  12.3504 13.0905 -73.6421
LeftForeArm  34.9566 -53.6664 -12.3973
LeftHand  -0.261663 -0.402739 5.32682
RightShoulder  -4.96962e-017 0 -2.36833e-017
RightArm  1.22793 -10.2087 74.7943
RightForeArm  55.1096 39.7136 5.8817
RightHand  -0.148255 -2.42226 -5.39778
LeftUpLeg  -35.0329 0.00540214 1.9527
LeftLeg  20.5541 6.58109 1.98785
LeftFoot  3.70839 -0.0154641 0.605889
LeftToes  -38.0124 1.83942e-006 5.51297e-008
455
root  -40.8796 34.4918 -4.05707 -159.828 29.6296 -179.615
RightUpLeg  -32.3802 -9.11955 -1.89989
RightLeg  9.66487 5.87952 0.61649
RightFoot  8.35194 -0.0365247 0.988292
RightToes  -39.0102 -0.210625 -0.315579
Spine  7.04203 0.832684 -0.213287
Spine1  14.0259 1.80942 0.0868393
HEad  2.36174 -6.53383 -5.531
LeftShoulder1  -1.94126e-019 -3.10601e-018 -2.51263e-017
LeftArm  14.308 12.7572 -73.502
LeftForeArm  35.1177 -53.9662 -12.5387
LeftHand  -0.269036 -0.497373 5.39617
RightShoulder  -4.96962e-017 0 -2.36833e-017
RightArm  4.36509 -9.92018 74.1541
RightForeArm  56.9851 41.4478 6.26465
RightHand  -0.167045 -2.50617 -6.31406
LeftUpLeg  -35.8839 0.280831 1.98282
LeftLeg  20.7532 6.07488 1.85841
LeftFoot  3.39669 -0.0128227 0.537932
LeftToes  -38.7467 1.83942e-006 5.51297e-008
456
root  -40.9012 34.4747 -3.911 -159.2 29.2069 -179.485
RightUpLeg  -32.9741 -9.31519 -1.57437
RightLeg  9.44883 5.60891 0.566908
RightFoot  8.1572 -0.0310107 0.930957
RightToes  -39.5783 -0.215123 -0.317212
Spine  7.2047 0.855752 -0.189931
Spine1  14.3548 1.84838 0.142076
HEad  2.11571 -6.60648 -5.47529
LeftShoulder1  -1.94126e-019 -3.10601e-018 -2.51263e-017
LeftArm  16.3638 12.4208 -73.0318
LeftForeArm  35.8285 -54.4781 -12.749
LeftHand  -0.274146 -0.943919 5.14856
RightShoulder  -4.96962e-017 0 -2.36833e-017
RightArm  7.69629 -9.96158 73.3984
RightForeArm  59.6606 43.2279 6.64586
RightHand  -0.245521 -2.13739 -8.49435
LeftUpLeg  -36.9302 0.810752 1.967
LeftLeg  21.13 5.26777 1.64983
LeftFoot  3.07375 -0.00921116 0.457509
LeftToes  -39.5655 1.83942e-006 5.51297e-008
457
root  -40.897 34.4578 -3.76103 -158.584 28.725 -179.32
RightUpLeg  -33.6823 -9.95625 -0.999132
RightLeg  9.52298 5.67057 0.580511
RightFoot  7.67912 -0.0268247 0.892086
RightToes  -40.4592 -0.222162 -0.319151
Spine  7.42798 0.879988 -0.110981
Spine1  14.8072 1.87809 0.313555
HEad  1.78952 -6.79814 -5.56505
LeftShoulder1  -1.94126e-019 -3.10601e-018 -2.51263e-017
LeftArm  18.0363 11.9999 -72.2537
LeftForeArm  35.6877 -55.211 -13.16
LeftHand  -0.308665 -1.447 5.39907
RightShoulder  -4.96962e-017 0 -2.36833e-017
RightArm  10.0798 -10.1243 72.5842
RightForeArm  60.9475 44.7125 7.03045
RightHand  -0.370141 -1.73997 -11.6157
LeftUpLeg  -37.9341 0.992108 2.1525
LeftLeg  21.4863 4.63511 1.48349
LeftFoot  2.86858 -0.00709812 0.404304
LeftToes  -40.0091 1.83942e-006 5.51297e-008
458
root  -40.8689 34.4449 -3.61873 -158.074 28.1259 -179.205
RightUpLeg  -34.3014 -10.6254 -0.454997
RightLeg  9.65215 5.67814 0.594188
RightFoot  7.24655 -0.0225027 0.849996
RightToes  -41.1731 -0.227922 -0.321653
Spine  7.68303 0.829726 -0.00992625
Spine1  15.3205 1.76107 0.508235
HEad  1.48988 -6.8121 -5.69266
LeftShoulder1  -1.94126e-019 -3.10601e-018 -2.51263e-017
LeftArm  20.2913 11.5106 -71.0111
LeftForeArm  36.7806 -56.1528 -13.5983
LeftHand  -0.411603 -2.17049 6.51969
RightShoulder  -4.96962e-017 0 -2.36833e-017
RightArm  11.6964 -10.2879 71.7842
RightForeArm  61.0813 45.6658 7.32014
RightHand  -0.543729 -1.10744 -14.6711
LeftUpLeg  -38.7731 0.798189 2.46929
LeftLeg  21.7321 4.28015 1.39012
LeftFoot  2.60716 -0.00546451 0.363795
LeftToes  -40.2569 1.83942e-006 5.51297e-008
459
root  -40.8351 34.4317 -3.47207 -157.328 27.6118 -179.063
RightUpLeg  -35.1173 -10.8705 0.0126545
RightLeg  9.73204 5.40751 0.57358
RightFoot  7.04897 -0.0175674 0.79709
RightToes  -41.8814 -0.233684 -0.325501
Spine  7.87181 0.776006 0.124355
Spine1  15.7031 1.62952 0.77298
HEad  1.57098 -6.84953 -5.94452
LeftShoulder1  -1.94126e-019 -3.10601e-018 -2.51263e-017
LeftArm  22.7277 11.0658 -69.7076
LeftForeArm  37.7561 -57.2009 -14.1381
LeftHand  -0.515345 -2.91343 7.43666
RightShoulder  -4.96962e-017 0 -2.36833e-017
RightArm  13.4543 -10.3152 70.7335
RightForeArm  60.3445 46.3059 7.56331
RightHand  -0.665794 -0.977745 -17.4419
LeftUpLeg  -39.824 0.955353 2.67096
LeftLeg  21.9474 3.7318 1.22742
LeftFoot  2.42666 -0.00343432 0.323683
LeftToes  -40.7175 1.83942e-006 5.51297e-008
